<?xml version="1.0" encoding="UTF-8"?>
<svg id="Capa_1" xmlns="http://www.w3.org/2000/svg" version="1.1" viewBox="0 0 2209.46 1437.05">
  <!-- Generator: Adobe Illustrator 30.2.1, SVG Export Plug-In . SVG Version: 2.1.1 Build 1)  -->
  <defs>
    <style>
      .st0 {
        fill: #4b5869;
      }
    </style>
  </defs>
  <g>
    <path class="st0" d="M276.98,638.64v-198.16c0-15.03-12.23-21.32-21.67-23.07h136.65v8.74c-2.8-1.4-5.59-2.45-8.74-3.5-5.24-1.75-12.58-3.84-20.62-3.84h-59.76v126.86c5.94,1.4,11.53,2.1,16.78,2.1,15.38,0,28.31-4.54,44.73-4.54,6.64,0,13.63.7,20.27,2.45v1.4c-6.64-1.4-13.28-2.1-19.22-2.1-16.78,0-30.75,4.19-45.78,4.19-5.59,0-11.18-.35-16.78-2.1v91.57c0,12.58,9.44,21.32,22.02,23.07h-70.25c9.09-1.05,22.37-8.04,22.37-23.07Z"/>
    <path class="st0" d="M359.81,619.07c0-6.99,1.4-16.08,6.64-24.81,16.43-27.61,58.36-29.36,72.34-60.46,1.75-4.19,2.79-8.04,2.79-11.53,0-1.75,0-7.34-4.54-13.28-4.54-5.59-10.83-6.99-14.68-6.99-1.4,0-3.15.35-4.54.7-9.44,2.8-8.74,13.63-19.22,13.63h-1.4c-9.44-.35-9.79-7.69-9.79-10.13s1.05-4.89,2.8-6.99c3.84-5.24,9.09-6.64,15.73-6.64,10.14,0,22.02,5.24,29.36,11.88,8.39,7.34,8.04,13.98,8.04,17.12,0,5.94-1.75,13.63-8.04,23.07-6.29,9.44-13.98,17.82-20.97,24.81l-9.09,9.09c-6.99,6.99-13.28,14.33-17.12,22.72-3.84,8.39-3.5,13.98-3.5,16.08,0,3.84.35,7.69,1.75,11.53,5.94,18.17,19.22,29.71,34.6,29.71,1.75,0,3.15,0,4.89-.35,12.93-1.75,24.46-10.48,39.84-26.21v-83.53c0-8.74-.7-16.78-2.45-24.11-2.8-12.58-9.09-26.21-21.67-31.45,25.16,1.75,49.98,18.17,49.98,58.02v87.02c0,2.8.7,5.59,1.75,8.39,6.99,19.57,27.96,27.61,51.72,27.61,33.9,0,70.95-16.78,72.69-41.24v-2.1c0-20.27-22.72-29.71-49.63-40.19-26.91-9.79-50.33-25.16-50.33-53.82v-2.8c1.05-22.37,14.33-41.24,49.98-41.24,18.52,0,39.14,11.18,52.07,22.72v.35q-.35.35-.7.35t-.35.35c-20.97-18.17-40.19-22.37-51.72-22.37-1.4,0-3.15,0-4.54.35-22.72,2.45-34.95,14.68-36.7,29.01v2.8c0,19.57,22.37,30.41,50.33,40.54,26.91,10.14,51.72,23.42,51.72,49.28v1.4c-1.75,41.24-44.04,58.36-84.93,58.36-37.39,0-73.39-14.33-76.89-37.4,0-1.4-.35-2.8-.35-4.19-11.88,12.58-28.66,27.61-47.18,27.61-2.1,0-4.54.35-6.64.35-11.53,0-26.21-.35-38.44-11.18-8.04-6.99-12.23-16.78-13.28-26.91,0-1.75-.35-3.15-.35-4.89Z"/>
    <path class="st0" d="M635.2,661.71c8.74-1.4,20.97-7.34,22.37-20.97v-201.3c0-14.68-13.28-20.62-22.37-22.37h48.23v114.63c3.84-16.43,16.43-30.41,34.95-35.65,8.39-2.45,15.73-2.8,20.62-2.8,2.45,0,4.54,0,6.99.35,26.56,1.75,48.58,25.51,48.58,67.1v78.29c.35,12.58,9.79,20.27,22.02,22.72h-70.25c9.09-1.05,22.37-8.39,22.37-22.37v-89.47c0-36.35-19.22-51.02-39.49-51.02-22.37,0-45.78,17.82-45.78,44.38v95.76c.35,12.58,9.79,20.27,22.02,22.72h-70.25Z"/>
    <path class="st0" d="M826.02,661.36c9.44-1.4,21.32-7.69,22.37-22.02v-57.32c0-12.93.35-21.67.35-31.1v-34.95c0-15.38-13.98-21.32-22.72-23.07,3.15,0,9.09,1.05,15.38,2.1,6.29,1.05,10.49,1.05,11.88,1.05,2.8,0,5.59-.35,8.39-.7,8.04-1.75,15.73-6.29,19.92-13.63,4.19-6.99,9.09-16.43,9.09-24.81v-.7c0-8.74-6.99-19.57-23.42-22.37,5.94,3.15,8.74,8.04,8.74,14.68,0,9.44-6.99,16.43-15.38,16.43s-15.38-6.99-15.38-16.43c0-10.83,8.39-15.73,17.82-15.73h1.05c18.17,0,27.61,12.23,28.66,22.02v1.4c0,7.69-4.19,17.12-8.74,27.26-4.54,10.13-9.79,20.62-9.79,30.41v125.12c.35,12.23,9.79,19.92,22.02,22.37h-70.25Z"/>
    <path class="st0" d="M908.84,547.78c11.88-31.1,40.19-53.47,74.09-54.52-32.15,1.05-50.33,30.41-54.87,59.76-1.75,10.83-2.1,22.02-1.05,33.2,3.84,32.5,11.88,71.99,52.77,73.39,10.83.35,19.92-1.75,27.61-6.29,16.78-10.48,24.81-26.21,28.66-45.08,1.75-10.13,2.8-20.27,2.45-31.1,3.84-1.75,7.34-4.19,11.18-6.64,3.5-2.45,7.34-4.89,11.18-7.69,2.45,12.58,1.75,25.16-1.75,37.74-9.44,32.15-42.29,60.81-76.54,60.81-42.29,0-76.19-38.44-78.98-79.33-.7-12.23,1.05-23.42,5.24-34.25ZM980.49,583.07c-12.93-4.19-22.37-13.28-25.86-26.21-1.75-6.29-2.1-13.28-.7-20.62,4.54-21.67,22.02-34.95,44.04-34.95,29.71,0,53.82,26.21,61.16,53.47,6.64-4.89,12.93-9.44,18.87-13.28,5.59-3.84,10.14-6.99,13.28-8.74v-18.17c-.7-6.29-3.5-11.53-8.39-15.73-3.84-2.8-9.79-5.24-14.33-5.94h48.58v24.11c15.38-9.09,31.8-17.47,48.93-22.02,5.24-1.05,9.79-1.75,13.98-1.4,34.6,2.8,48.23,35.3,48.23,66.75v78.63c.7,12.58,10.14,20.62,22.02,22.72h-70.25c5.24-.7,10.48-3.15,14.68-6.29,4.89-3.84,7.69-9.79,7.69-16.08v-89.47c0-11.18-2.1-22.72-7.34-32.85-5.94-10.48-14.33-16.78-26.91-16.78-16.43,0-37.05,10.48-51.03,18.52-19.57,11.88-38.79,24.46-57.67,37.75-15.73,12.58-36.35,25.51-56.27,28.31-8.39,1.05-16.08.7-22.72-1.75ZM954.98,550.22c1.4,14.33,9.79,24.46,22.72,30.41,6.64,3.15,15.38,3.84,25.51,2.45,12.58-1.4,24.11-6.64,34.6-13.28v-.7c-1.75-21.32-8.04-51.02-28.66-62.21-4.54-2.1-9.44-3.15-13.98-3.15-4.19,0-8.04.7-11.88,2.1-11.53,5.24-21.32,12.58-25.86,25.16-2.45,6.29-3.15,12.58-2.45,19.22ZM1068.91,661.71c11.18-1.75,20.97-9.09,22.37-20.97v-99.25c6.29-3.84,11.88-7.34,16.43-10.48,4.54-2.8,7.69-4.54,9.44-5.59v113.58c.35,5.24,1.75,9.44,4.54,12.58,3.49,5.24,8.74,7.34,14.33,9.09,1.05.35,2.1.7,3.14,1.05h-70.25Z"/>
    <path class="st0" d="M1257.63,537.99v-2.8c1.05-22.72,14.33-41.59,49.98-41.59,18.52,0,39.14,10.83,52.07,23.07h-.35c0,.35-.35.35-.35.7l-.35.35c-20.97-18.52-40.89-22.72-52.42-22.72-1.4,0-2.8.35-3.84.35-22.72,2.8-34.95,14.68-36.7,29.01v2.8c0,19.22,22.37,29.71,50.33,39.14,26.91,9.44,51.72,22.02,51.72,47.88v1.4c-1.05,27.61-25.86,44.73-52.42,44.73-23.42,0-41.94-14.68-44.73-34.25h1.75c2.45,19.22,19.92,32.5,41.94,32.85,23.77,0,41.59-12.93,43.34-27.96,0-1.4.35-2.45.35-3.84,0-17.82-21.67-27.26-48.93-37.05-18.17-6.29-34.6-14.68-44.38-28.31-4.54-6.29-6.99-13.98-6.99-23.77Z"/>
    <path class="st0" d="M1471.51,418.12c74.44,0,131.06,52.07,131.06,121.97s-54.87,122.32-131.06,122.32c-25.16-1.05-43.34-16.78-48.58-36.35v36.35h-47.88c9.44-1.75,22.02-8.04,22.02-23.07v-198.51c0-15.03-12.58-20.97-22.02-22.72h96.46ZM1423.28,615.23c0,4.89.35,15.03,8.74,26.21s22.37,19.22,39.49,19.57c65.7,0,105.2-56.27,105.2-120.92s-39.49-120.57-105.2-120.57h-48.58v184.88l1.05-3.15c3.15-10.83,9.79-18.52,17.82-23.07,8.04-4.19,14.33-4.19,17.82-4.19,2.45,0,5.24,0,8.04.7,7.34,1.75,16.78,6.64,23.07,12.58,6.29,5.94,8.39,12.58,8.39,17.12,0,1.4,0,2.8-.35,4.19-1.4,5.24-4.54,8.04-9.79,8.04-3.15,0-5.94-1.05-8.39-3.49-1.75-1.4-2.8-3.15-2.8-4.89-1.05.7,3.84-11.88,3.84-15.38,0-1.4-.35-2.45-.7-3.84-2.45-6.99-8.39-11.18-15.38-12.93-2.1-.35-4.54-.7-6.64-.7-11.53,0-26.91,6.29-33.55,26.21-1.4,4.54-2.1,9.09-2.1,13.63Z"/>
    <path class="st0" d="M1609.91,575.73c0-21.67,7.69-40.19,20.27-55.22,17.82-19.57,42.99-29.71,67.8-29.71,35.65,0,68.5,21.32,68.5,66.05-2.8,0-5.94-.35-8.74-.35-23.77,0-52.07,4.89-75.14,16.43-23.07,11.53-36,27.96-36,45.43,0,1.75,0,3.84.35,5.59,11.18,19.22,27.61,30.06,49.63,32.15h3.49c17.12,0,33.2-10.13,49.63-28.31,16.43-18.17,31.1-42.29,46.13-65.7v-47.88c-1.05-13.98-14.33-19.57-22.72-21.32h48.23v5.94c0,2.8.35,5.94.35,11.53v12.93c8.39-11.18,16.08-19.22,24.11-23.07,11.53-6.64,23.42-7.34,32.15-7.34,2.1,0,4.19.35,6.29.35,34.95,2.8,48.58,36.35,48.58,67.1v78.63c.35,12.23,9.79,19.92,22.02,22.37h-70.25c9.09-1.05,22.37-8.39,22.37-22.37v-89.47c0-36.35-19.22-51.02-38.79-51.02-12.93,0-26.56,6.29-36,16.43-3.84,3.84-7.34,7.69-10.48,11.88-8.74,11.18-17.47,24.46-25.86,38.09-30.06,47.88-58.01,96.11-105.54,96.11-3.84,0-8.04-.35-12.58-1.05-34.95-6.29-66.75-30.41-67.8-80.03v-4.19ZM1634.72,572.59c0,11.53,1.05,29.36,10.48,48.58v-3.15c0-17.12,11.88-32.15,31.1-43.34s44.04-17.82,66.75-19.22v-1.75c0-16.08-6.29-32.5-17.47-44.39-11.18-11.88-24.46-15.38-34.25-15.38-3.49,0-6.99.35-10.48,1.05-27.26,5.59-40.89,35.3-44.73,60.46l-.35,1.4c-.7,5.24-1.05,10.48-1.05,15.73ZM1795.83,640.74v-66.75c8.74-13.98,17.12-25.86,25.86-38.44v103.45c0,12.93,10.48,19.92,22.02,22.37h-70.25c9.09-1.05,20.62-7.69,22.37-20.62Z"/>
  </g>
  <path class="st0" d="M1149.63,794.14h-293.62v26.65c4.37-2.13,8.68-3.78,13.58-5.43,8.14-2.72,19.59-5.96,32.05-5.96h92.95v9.87c.11,1.01.16,1.97.16,2.98v182.29c-.05-.16-.11-.32-.16-.48-.8-2.56-1.7-5.06-2.72-7.51-.27-.75-.59-1.44-.91-2.18-14.8-34.55-47.75-61.65-107.12-61.65-35.3,0-33.59,38.49-2.66,38.49,14.59,0,29.39-11.23,48.98-11.23,24.65,0,44.4,12.03,55.26,35.4.37.75.69,1.54,1.06,2.34,4.63,10.81,7.45,23.96,8.09,39.29.11,2.29.16,4.69.16,7.08v96.63c0,9.1-3.83,17.68-10.59,22.36-6.07,5.8-14.32,9.64-23.8,10.97h113.73v-56.53c8.15,30.44,36.41,54.89,75.55,56.53,118.48,0,203.81-83.16,203.81-190.23s-88.05-189.68-203.81-189.68ZM1149.63,1171.88c-26.63-.54-48.37-13.04-61.42-30.44-13.04-17.39-13.59-33.15-13.59-40.76,0-7.07,1.09-14.13,3.26-21.2,10.33-30.98,34.24-40.76,52.18-40.76,3.26,0,7.07.54,10.33,1.09,10.87,2.72,20.11,9.24,23.91,20.11.54,2.17,1.09,3.8,1.09,5.98,0,5.43-7.61,25-5.98,23.91,0,2.72,1.63,5.43,4.35,7.61,3.8,3.8,8.15,5.44,13.04,5.44,8.15,0,13.04-4.35,15.22-12.5.54-2.17.54-4.35.54-6.52,0-7.07-3.26-17.39-13.04-26.63-9.78-9.24-24.46-16.85-35.87-19.57-4.35-1.09-8.7-1.09-12.5-1.09-5.43,0-15.22,0-27.72,6.52-12.5,7.07-22.83,19.02-27.72,35.87l-1.63,4.89v-274.44h75.55c102.18,0,163.6,74.43,163.6,174.43s-61.42,188.05-163.6,188.05Z"/>
</svg>