<?xml version="1.0" encoding="UTF-8"?>
<svg xmlns="http://www.w3.org/2000/svg" viewBox="175 185 1920 295">
  <defs>
    <style>
      .st0 {
        fill: #4b5869;
      }
    </style>
  </defs>
  <g>
    <g>
      <path class="st0" d="M210.09,438.66v-219.02c0-16.61-13.52-23.56-23.95-25.49h151.03v9.66c-3.09-1.55-6.18-2.7-9.66-3.86-5.79-1.93-13.91-4.25-22.79-4.25h-66.05v140.21c6.57,1.55,12.75,2.32,18.54,2.32,17,0,31.29-5.02,49.44-5.02,7.34,0,15.07.77,22.4,2.7v1.55c-7.34-1.55-14.68-2.32-21.24-2.32-18.54,0-33.99,4.63-50.6,4.63-6.18,0-12.36-.39-18.54-2.32v101.2c0,13.91,10.43,23.56,24.33,25.49h-77.64c10.04-1.16,24.72-8.88,24.72-25.49h.01Z"/>
      <path class="st0" d="M301.64,417.03c0-7.72,1.55-17.77,7.34-27.42,18.15-30.52,64.51-32.45,79.96-66.82,1.93-4.63,3.09-8.88,3.09-12.75,0-1.93,0-8.11-5.02-14.68-5.02-6.18-11.97-7.73-16.22-7.73-1.55,0-3.48.39-5.02.77-10.43,3.09-9.65,15.06-21.25,15.06h-1.54c-10.43-.39-10.82-8.5-10.82-11.2s1.16-5.41,3.09-7.73c4.25-5.79,10.04-7.34,17.38-7.34,11.2,0,24.33,5.79,32.45,13.13,9.27,8.11,8.88,15.45,8.88,18.93,0,6.57-1.93,15.06-8.88,25.49s-15.45,19.7-23.18,27.43l-10.04,10.04c-7.73,7.72-14.68,15.84-18.93,25.11s-3.86,15.45-3.86,17.77c0,4.25.39,8.5,1.93,12.75,6.57,20.08,21.25,32.83,38.24,32.83,1.93,0,3.48,0,5.41-.39,14.29-1.93,27.04-11.59,44.03-28.97v-92.32c0-9.66-.77-18.54-2.7-26.65-3.09-13.9-10.04-28.97-23.95-34.76,27.81,1.93,55.24,20.09,55.24,64.12v96.18c0,3.09.77,6.18,1.93,9.27,7.72,21.63,30.9,30.51,57.17,30.51,37.47,0,78.41-18.54,80.35-45.58v-2.32c0-22.4-25.11-32.83-54.85-44.42-29.74-10.82-55.62-27.81-55.62-59.49v-3.09c1.16-24.72,15.84-45.58,55.24-45.58,20.47,0,43.26,12.36,57.55,25.11v.39c-.26.26-.52.39-.77.39s-.38.13-.38.39c-23.18-20.09-44.42-24.72-57.17-24.72-1.54,0-3.48,0-5.02.38-25.11,2.7-38.63,16.22-40.56,32.06v3.09c0,21.63,24.72,33.6,55.62,44.81,29.74,11.2,57.17,25.88,57.17,54.46v1.55c-1.93,45.58-48.67,64.51-93.87,64.51-41.33,0-81.12-15.84-84.98-41.33,0-1.54-.39-3.09-.39-4.63-13.13,13.91-31.67,30.51-52.14,30.51-2.32,0-5.02.39-7.34.39-12.75,0-28.97-.39-42.49-12.36-8.88-7.73-13.52-18.54-14.68-29.74,0-1.93-.39-3.48-.39-5.41h0Z"/>
      <path class="st0" d="M606.02,464.15c9.65-1.54,23.17-8.11,24.72-23.18v-222.49c0-16.22-14.68-22.79-24.72-24.72h53.3v126.7c4.25-18.16,18.15-33.61,38.63-39.4,9.27-2.7,17.38-3.09,22.79-3.09,2.7,0,5.02,0,7.73.39,29.36,1.93,53.69,28.2,53.69,74.16v86.52c.39,13.9,10.82,22.4,24.33,25.11h-77.64c10.04-1.16,24.72-9.27,24.72-24.72v-98.88c0-40.17-21.25-56.4-43.65-56.4-24.72,0-50.6,19.7-50.6,49.06v105.84c.39,13.9,10.82,22.4,24.34,25.11h-77.64,0Z"/>
      <path class="st0" d="M816.92,463.77c10.43-1.55,23.56-8.5,24.72-24.34v-63.35c0-14.29.39-23.95.39-34.38v-38.63c0-17-15.45-23.56-25.11-25.5,3.48,0,10.04,1.16,17,2.32s11.59,1.16,13.13,1.16c3.09,0,6.18-.39,9.27-.77,8.88-1.93,17.38-6.95,22.02-15.06,4.63-7.72,10.04-18.15,10.04-27.42v-.77c0-9.66-7.73-21.63-25.88-24.72,6.57,3.48,9.66,8.88,9.66,16.22,0,10.43-7.72,18.15-17,18.15s-17-7.72-17-18.15c0-11.97,9.27-17.38,19.7-17.38h1.16c20.09,0,30.51,13.52,31.67,24.34v1.54c0,8.5-4.63,18.93-9.66,30.13-5.02,11.2-10.82,22.79-10.82,33.61v138.28c.38,13.52,10.82,22.02,24.33,24.72h-77.64.02Z"/>
      <path class="st0" d="M908.47,338.23c13.13-34.38,44.42-59.1,81.89-60.26-35.54,1.16-55.62,33.61-60.64,66.05-1.93,11.98-2.32,24.34-1.16,36.7,4.25,35.92,13.13,79.57,58.33,81.12,11.98.39,22.02-1.93,30.51-6.95,18.54-11.59,27.43-28.97,31.67-49.83,1.93-11.2,3.09-22.4,2.71-34.38,4.25-1.93,8.11-4.63,12.36-7.34,3.86-2.7,8.11-5.41,12.36-8.5,2.7,13.9,1.93,27.81-1.93,41.72-10.43,35.54-46.74,67.21-84.59,67.21-46.74,0-84.21-42.49-87.3-87.68-.77-13.52,1.16-25.88,5.79-37.86h0ZM987.66,377.24c-14.29-4.64-24.72-14.68-28.59-28.97-1.93-6.95-2.32-14.68-.77-22.79,5.02-23.95,24.33-38.63,48.67-38.63,32.83,0,59.49,28.97,67.6,59.1,7.34-5.41,14.29-10.43,20.86-14.68,6.18-4.25,11.2-7.73,14.68-9.66v-20.09c-.77-6.95-3.87-12.75-9.27-17.38-4.25-3.09-10.81-5.79-15.84-6.57h53.69v26.65c17-10.04,35.15-19.31,54.08-24.33,5.79-1.16,10.82-1.93,15.45-1.55,38.24,3.09,53.3,39.01,53.3,73.78v86.91c.77,13.9,11.2,22.79,24.34,25.11h-77.64c5.79-.77,11.59-3.48,16.22-6.95,5.41-4.25,8.5-10.82,8.5-17.77v-98.88c0-12.36-2.32-25.11-8.11-36.31-6.57-11.59-15.84-18.54-29.74-18.54-18.15,0-40.94,11.59-56.39,20.47-21.63,13.13-42.88,27.04-63.74,41.72-17.38,13.91-40.17,28.2-62.19,31.29-9.27,1.16-17.77.77-25.11-1.93h0ZM959.46,340.93c1.55,15.84,10.82,27.04,25.11,33.61,7.34,3.48,17,4.25,28.2,2.7,13.9-1.55,26.65-7.34,38.24-14.68v-.77c-1.93-23.56-8.88-56.39-31.67-68.76-5.02-2.32-10.43-3.48-15.45-3.48-4.63,0-8.88.77-13.13,2.32-12.75,5.79-23.56,13.91-28.58,27.81-2.7,6.95-3.48,13.91-2.7,21.25h-.02,0ZM1085.39,464.15c12.36-1.93,23.17-10.04,24.72-23.18v-109.7c6.95-4.25,13.13-8.11,18.15-11.59,5.02-3.09,8.5-5.02,10.43-6.18v125.54c.39,5.79,1.93,10.43,5.02,13.9,3.86,5.8,9.66,8.11,15.84,10.04,1.16.39,2.32.77,3.48,1.16h-77.64Z"/>
    </g>
    <path class="st0" d="M2021.91,310.09c-10.87-18.24-28.7-31.05-53.55-32.57h-5.82c-13.95,0-28.7,2.7-41.89,10.45-13.19,7.75-23.3,19.8-27.94,33.75v-129.19h-53.55c10.07,1.94,24.82,8.55,24.82,25.62v107.41c3.61,9.05,6.01,19.12,7.18,30.14,1.29,16.8-.19,32.08-4.48,46.79-.8,2.74-1.71,5.4-2.7,8.02v28.39c-.38,13.99-10.87,23.3-24.44,25.24h23.68c12.01,0,21.7-6.61,26.38-16.31,18.24,13.99,36.87,16.31,50.44,16.31,4.26,0,8.55,0,12.81-.8,23.26-4.64,41.51-12.77,57.43-30.25,6.96-7.37,12.81-16.31,17.07-26.76,8.51-20.56,8.13-36.11,8.13-43.06,0-15.55-2.7-34.93-13.57-53.17h0ZM2006.4,392.76c-3.12,18.59-13.99,42.27-31.05,55.07-12.43,9.69-26.38,14.37-39.95,14.37-16.69,0-31.43-5.82-45.04-16.31,1.56-3.12,2.36-6.61,2.36-10.87v-108.25c7.37-29.08,35.31-42.3,55.07-42.3h4.67c22.12,1.94,37.63,16.31,46.94,36.11,8.93,19.76,9.31,37.63,9.31,47.32,0,6.99-.8,15.13-2.32,24.86h.01Z"/>
    <path class="st0" d="M1426.71,438.53v-133.07c-10.87,45-80.73,41.13-94.72,84.57v48.5c0,13.99,10.49,23.68,24.44,25.62h-77.99c1.18,0,2.36-.38,3.88-.8,9.31-2.7,19.8-9.31,20.98-22.88v-194.79h-.04v-52.76h28.7v17.18l.04-.04v176.85c15.51-43.44,93.16-38.01,94.72-90.76v-77.23c0-.53,0-1.06-.04-1.56v-24.44h28.73v247.55c1.18,13.57,10.87,21.74,24.44,23.68h-77.99c3.5-.38,6.99-1.56,10.49-3.12,7.37-4.26,14.37-10.45,14.37-22.5h0Z"/>
    <path class="st0" d="M1860.08,356.29c-3.12-29.49-16.3-56.63-44.62-68.68-9.69-3.5-19.8-5.44-30.25-5.44-60.17,0-111.74,66.36-145.91,111.36-7.75,9.69-15.13,19-22.5,27.94-7.37,8.93-13.95,16.69-20.56,23.26-9.31,10.87-25.62,18.24-39.95,18.24-20.18,0-33.37-12.81-39.19-31.05-2.74-6.96-3.88-15.51-3.88-25.58v-99.35c.76-13.95,11.63-22.88,24.82-24.82h-53.55v112.12c-.38,11.67,1.18,22.12,3.88,31.05,6.99,22.5,25.24,41.89,49.68,43.06,8.93.76,16.69.38,23.68-.76,20.56-3.5,33.75-15.93,46.14-31.81,0,19,14.37,33.33,33.37,33.33h20.56c-6.96-1.14-10.07-2.32-15.51-6.96-5.82-4.29-8.93-9.69-9.69-16.69v-45c16.31-21.74,33.37-43.06,52.38-62.49v105.93c-.76,13.95-11.25,22.88-24.44,25.2h23.68c5.82,0,11.25-1.52,15.89-4.26,4.67-3.08,8.13-6.99,10.49-12.01,8.89,6.99,19,11.63,30.26,14.33,10.87,2.36,21.74,2.74,32.99,1.18,38.77-8.13,66.7-29.11,77.96-67.5,4.29-14.75,5.43-29.49,4.29-44.62l-.02.02h0ZM1832.15,393.92c-6.23,37.63-31.05,72.94-71.8,72.94-8.13,0-15.89-1.14-23.26-4.26-7.75-2.7-15.13-6.61-21.74-11.63,1.56-3.5,2.32-6.99,2.32-10.87v-127.67c11.67-8.89,24.48-16.69,38.81-20.94,6.99-1.94,13.99-2.7,20.94-1.94,35.31,3.5,52.41,36.87,55.49,68.68,1.18,12.01,1.18,24.06-.76,35.69h0ZM1583.42,282.18c13.19,2.32,23.68,10.87,24.44,24.82v114.86c2.74-3.5,5.05-6.99,6.99-9.69,1.94-2.74,4.26-5.82,6.61-8.55,4.64-6.58,9.69-13.19,15.13-19v-79.55c1.56-12.77,12.43-20.94,24.82-22.88h-77.99,0ZM1664.15,197.61c5.82.76,11.63,3.5,16.27,6.99,2.36,1.94,4.29,4.64,6.23,7.75,1.56,3.08,2.32,6.58,2.32,10.87v99.7c4.64-4.26,9.31-8.55,13.95-12.81,4.67-4.26,9.73-8.13,14.75-11.63v-100.87h-53.52,0Z"/>
  </g>
</svg>